<svg xmlns="http://www.w3.org/2000/svg" viewBox="0 0 1200 80" preserveAspectRatio="none">

  <!-- ═══ LEFT SIDE: Manhattan buildings ═══ -->
  <g fill="#d0d0d0" opacity="0.5">

    <!-- Low foreground buildings far left -->
    <rect x="0"   y="60" width="30" height="20"/>
    <rect x="34"  y="54" width="28" height="26"/>
    <rect x="66"  y="58" width="24" height="22"/>

    <!-- Mid-rise cluster -->
    <rect x="96"  y="46" width="34" height="34"/>
    <rect x="134" y="40" width="30" height="40"/>

    <!-- Tall tower (Empire State-like) — stepped top -->
    <rect x="170" y="44" width="50" height="36"/>  <!-- base -->
    <rect x="175" y="34" width="40" height="12"/>  <!-- setback 1 -->
    <rect x="181" y="24" width="28" height="12"/>  <!-- setback 2 -->
    <rect x="186" y="16" width="18" height="10"/>  <!-- setback 3 -->
    <rect x="190" y="10" width="10" height="8"/>   <!-- mast -->
    <rect x="193" y="4"  width="4"  height="8"/>   <!-- antenna -->

    <!-- Wide slab building -->
    <rect x="228" y="38" width="46" height="42"/>
    <rect x="230" y="30" width="42" height="10"/>

    <!-- Buildings stepping toward bridge -->
    <rect x="282" y="44" width="36" height="36"/>
    <rect x="324" y="38" width="38" height="42"/>
    <rect x="368" y="46" width="32" height="34"/>

  </g>

  <!-- ═══ BROOKLYN BRIDGE ═══ -->
  <g fill="none" stroke="#dcdcdc" stroke-opacity="0.5">
    <!-- Left tower -->
    <rect x="418" y="10" width="6"  height="70" fill="#dcdcdc" fill-opacity="0.5" stroke="none"/>
    <rect x="430" y="10" width="6"  height="70" fill="#dcdcdc" fill-opacity="0.5" stroke="none"/>
    <path d="M424,50 L424,38 Q427,32 430,38 L430,50" stroke-width="1.5"/>
    <rect x="416" y="8"  width="22" height="4"  fill="#dcdcdc" fill-opacity="0.5" stroke="none"/>
    <!-- Right tower -->
    <rect x="764" y="10" width="6"  height="70" fill="#dcdcdc" fill-opacity="0.5" stroke="none"/>
    <rect x="776" y="10" width="6"  height="70" fill="#dcdcdc" fill-opacity="0.5" stroke="none"/>
    <path d="M770,50 L770,38 Q773,32 776,38 L776,50" stroke-width="1.5"/>
    <rect x="762" y="8"  width="22" height="4"  fill="#dcdcdc" fill-opacity="0.5" stroke="none"/>
    <!-- Main suspension cables -->
    <path d="M427,12 Q500,55 600,58 Q700,55 773,12" stroke-width="1.8"/>
    <path d="M427,16 Q510,52 600,54 Q690,52 773,16" stroke-width="1"/>
    <!-- Vertical suspenders -->
    <line x1="450" y1="26" x2="450" y2="72" stroke-width="0.6"/>
    <line x1="470" y1="34" x2="470" y2="72" stroke-width="0.6"/>
    <line x1="490" y1="40" x2="490" y2="72" stroke-width="0.6"/>
    <line x1="510" y1="44" x2="510" y2="72" stroke-width="0.6"/>
    <line x1="530" y1="48" x2="530" y2="72" stroke-width="0.6"/>
    <line x1="550" y1="52" x2="550" y2="72" stroke-width="0.6"/>
    <line x1="570" y1="55" x2="570" y2="72" stroke-width="0.6"/>
    <line x1="590" y1="57" x2="590" y2="72" stroke-width="0.6"/>
    <line x1="610" y1="57" x2="610" y2="72" stroke-width="0.6"/>
    <line x1="630" y1="55" x2="630" y2="72" stroke-width="0.6"/>
    <line x1="650" y1="52" x2="650" y2="72" stroke-width="0.6"/>
    <line x1="670" y1="48" x2="670" y2="72" stroke-width="0.6"/>
    <line x1="690" y1="44" x2="690" y2="72" stroke-width="0.6"/>
    <line x1="710" y1="40" x2="710" y2="72" stroke-width="0.6"/>
    <line x1="730" y1="34" x2="730" y2="72" stroke-width="0.6"/>
    <line x1="750" y1="26" x2="750" y2="72" stroke-width="0.6"/>
    <!-- Diagonal stay cables -->
    <line x1="427" y1="14" x2="460" y2="72" stroke-width="0.6"/>
    <line x1="427" y1="14" x2="480" y2="72" stroke-width="0.6"/>
    <line x1="427" y1="14" x2="510" y2="72" stroke-width="0.6"/>
    <line x1="427" y1="14" x2="545" y2="72" stroke-width="0.6"/>
    <line x1="773" y1="14" x2="740" y2="72" stroke-width="0.6"/>
    <line x1="773" y1="14" x2="720" y2="72" stroke-width="0.6"/>
    <line x1="773" y1="14" x2="690" y2="72" stroke-width="0.6"/>
    <line x1="773" y1="14" x2="655" y2="72" stroke-width="0.6"/>
    <!-- Road deck -->
    <line x1="418" y1="72" x2="782" y2="72" stroke-width="2"/>
  </g>

  <!-- ═══ RIGHT SIDE: Downtown buildings ═══ -->
  <g fill="#d0d0d0" opacity="0.5">

    <!-- Buildings stepping up from bridge -->
    <rect x="790" y="42" width="32" height="38"/>
    <rect x="828" y="36" width="34" height="44"/>

    <!-- Very tall tower (One WTC-like) -->
    <rect x="870" y="22" width="46" height="58"/>  <!-- base -->
    <rect x="874" y="14" width="38" height="10"/>  <!-- taper 1 -->
    <rect x="879" y="8"  width="28" height="8"/>   <!-- taper 2 -->
    <rect x="884" y="3"  width="18" height="7"/>   <!-- top -->
    <rect x="891" y="0"  width="4"  height="5"/>   <!-- spire -->

    <!-- Mid buildings -->
    <rect x="924" y="30" width="38" height="50"/>
    <rect x="968" y="36" width="34" height="44"/>
    <rect x="1008" y="42" width="36" height="38"/>

    <!-- Tapering off right -->
    <rect x="1050" y="48" width="32" height="32"/>
    <rect x="1088" y="54" width="28" height="26"/>
    <rect x="1122" y="58" width="26" height="22"/>
    <rect x="1154" y="62" width="24" height="18"/>
    <rect x="1182" y="64" width="18" height="16"/>

  </g>

</svg>
