<svg xmlns="http://www.w3.org/2000/svg" viewBox="0 0 1200 80" preserveAspectRatio="none">

  <!-- Continuous base/ground shadow along entire bottom — no white gaps -->
  <rect x="0" y="72" width="1200" height="8" fill="#d8d8d8" opacity="0.4"/>
  <rect x="0" y="76" width="1200" height="4" fill="#d0d0d0" opacity="0.5"/>

  <g fill="#d0d0d0" opacity="0.5">

    <!-- ═══ LEFT SIDE: LOW BUILDINGS + CRANES (x=0-280) ═══ -->

    <!-- Construction crane far left -->
    <rect x="8" y="30" width="2" height="50"/>
    <rect x="2" y="30" width="16" height="2"/>
    <path d="M10,30 L18,28" fill="none" stroke="#d0d0d0" stroke-opacity="0.5" stroke-width="0.8"/>
    <rect x="16" y="30" width="1" height="8"/>

    <!-- Low-rise cluster -->
    <path d="M24,80 L24,56 L36,56 L36,80"/>
    <path d="M38,80 L38,50 L42,48 L46,50 L46,80"/>
    <path d="M48,80 L48,54 L60,54 L60,80"/>
    <path d="M62,80 L62,48 L72,48 L72,80"/>
    <path d="M74,80 L74,52 L84,52 L84,80"/>

    <!-- Mid-rise with water tower -->
    <path d="M90,80 L90,42 L104,42 L104,80"/>
    <!-- Water tower on roof -->
    <path d="M94,42 L94,36 L100,36 L100,42" fill="none" stroke="#d0d0d0" stroke-opacity="0.5" stroke-width="1"/>
    <ellipse cx="97" cy="36" rx="4" ry="3"/>

    <path d="M108,80 L108,46 L120,46 L120,80"/>
    <path d="M124,80 L124,40 L134,40 L134,80"/>
    <path d="M138,80 L138,44 L148,44 L148,80"/>

    <!-- Taller pre-downtown -->
    <path d="M152,80 L152,36 L164,36 L164,80"/>
    <path d="M168,80 L168,32 L176,32 L176,80"/>
    <path d="M180,80 L180,38 L190,38 L190,80"/>

    <!-- Church steeple -->
    <path d="M196,80 L196,40 L200,40 L200,34 L202,22 L204,34 L204,40 L208,40 L208,80"/>

    <path d="M212,80 L212,34 L222,34 L222,80"/>
    <path d="M226,80 L226,30 L236,30 L236,80"/>

    <!-- ═══ STATUE OF LIBERTY (small, x=240-260) ═══ -->
    <path d="M248,80 L248,58 L250,52 L249,48 L251,44 L250,40 L252,36 L251,32 L253,28 L252,24 L254,80"/>
    <!-- Torch -->
    <path d="M251,36 L246,24" fill="none" stroke="#d0d0d0" stroke-opacity="0.5" stroke-width="1.2"/>
    <ellipse cx="245" cy="22" rx="2" ry="3"/>
    <!-- Crown rays -->
    <path d="M251,28 L248,22 M252,27 L252,20 M253,28 L256,22" fill="none" stroke="#d0d0d0" stroke-opacity="0.5" stroke-width="0.7"/>
    <!-- Pedestal -->
    <path d="M246,80 L246,58 L256,58 L256,80"/>

    <path d="M260,80 L260,36 L270,36 L270,80"/>

    <!-- ═══ LOGO ZONE (x=275-360): only very low buildings ═══ -->
    <path d="M278,80 L278,66 L288,66 L288,80"/>
    <path d="M292,80 L292,68 L300,68 L300,80"/>
    <path d="M304,80 L304,66 L314,66 L314,80"/>
    <path d="M318,80 L318,70 L326,70 L326,80"/>
    <path d="M330,80 L330,68 L338,68 L338,80"/>
    <path d="M342,80 L342,66 L352,66 L352,80"/>
    <path d="M356,80 L356,70 L364,70 L364,80"/>

    <!-- ═══ DOWNTOWN TOWERS (x=370-430) ═══ -->
    <path d="M370,80 L370,40 L380,40 L380,80"/>
    <path d="M384,80 L384,34 L392,34 L392,80"/>

    <!-- Woolworth - Gothic top -->
    <path d="M398,80 L398,28 L400,24 L402,18 L404,12 L405,6 L406,12 L408,18 L410,24 L412,28 L412,80"/>

    <!-- One WTC - clean taper -->
    <path d="M418,80 L420,16 L424,8 L426,4 L428,8 L432,16 L434,80"/>
    <rect x="425" y="0" width="1.5" height="4"/>

    <!-- WTC neighbor -->
    <path d="M438,80 L438,26 L446,26 L446,80"/>

    <!-- ═══ SUSPENSION BRIDGE — CENTER (x=440-600) ═══ -->
  </g>

  <!-- Bridge group (separate for stroke control) -->
  <g fill="#d0d0d0" fill-opacity="0.5" stroke="#d0d0d0" stroke-opacity="0.5">
    <!-- Left Gothic tower -->
    <path d="M452,72 L452,8 L454,6 L462,6 L464,8 L464,72 Z" stroke="none"/>
    <!-- Gothic arch window -->
    <path d="M455,48 L455,32 Q458,24 461,32 L461,48 Z" fill="white" stroke="none"/>
    <!-- Tower cap -->
    <rect x="450" y="5" width="16" height="2" stroke="none"/>

    <!-- Right Gothic tower -->
    <path d="M586,72 L586,8 L588,6 L596,6 L598,8 L598,72 Z" stroke="none"/>
    <!-- Gothic arch window -->
    <path d="M589,48 L589,32 Q592,24 595,32 L595,48 Z" fill="white" stroke="none"/>
    <!-- Tower cap -->
    <rect x="584" y="5" width="16" height="2" stroke="none"/>

    <!-- Main cables -->
    <path d="M458,8 Q490,52 525,58 Q560,52 592,8" fill="none" stroke-width="2"/>
    <path d="M458,12 Q492,48 525,52 Q558,48 592,12" fill="none" stroke-width="0.8"/>

    <!-- Vertical suspenders -->
    <line x1="475" y1="24" x2="475" y2="70" stroke-width="0.6"/>
    <line x1="488" y1="34" x2="488" y2="70" stroke-width="0.6"/>
    <line x1="500" y1="42" x2="500" y2="70" stroke-width="0.6"/>
    <line x1="512" y1="50" x2="512" y2="70" stroke-width="0.6"/>
    <line x1="525" y1="54" x2="525" y2="70" stroke-width="0.6"/>
    <line x1="538" y1="50" x2="538" y2="70" stroke-width="0.6"/>
    <line x1="550" y1="42" x2="550" y2="70" stroke-width="0.6"/>
    <line x1="562" y1="34" x2="562" y2="70" stroke-width="0.6"/>
    <line x1="575" y1="24" x2="575" y2="70" stroke-width="0.6"/>

    <!-- Diagonal stay cables -->
    <line x1="458" y1="10" x2="485" y2="70" stroke-width="0.5" stroke-opacity="0.35"/>
    <line x1="458" y1="10" x2="505" y2="70" stroke-width="0.5" stroke-opacity="0.35"/>
    <line x1="592" y1="10" x2="565" y2="70" stroke-width="0.5" stroke-opacity="0.35"/>
    <line x1="592" y1="10" x2="545" y2="70" stroke-width="0.5" stroke-opacity="0.35"/>

    <!-- Road deck -->
    <line x1="448" y1="70" x2="602" y2="70" stroke-width="2.5"/>
  </g>

  <g fill="#d0d0d0" opacity="0.5">

    <!-- ═══ MIDTOWN RIGHT OF BRIDGE (x=610-900) ═══ -->
    <path d="M612,80 L612,38 L622,38 L622,80"/>
    <path d="M626,80 L626,32 L636,32 L636,80"/>
    <path d="M640,80 L640,36 L648,36 L648,80"/>

    <!-- Chrysler Building — terraced sunburst crown -->
    <path d="M654,80 L654,18 L668,18 L668,80"/>
    <path d="M652,18 L654,16 L656,12 L657,15 L658,10 L659,14 L660,6 L661,3 L662,6 L663,14 L664,10 L665,15 L666,12 L668,16 L670,18"/>
    <rect x="660.5" y="0" width="1" height="3"/>

    <path d="M674,80 L674,26 L684,26 L684,80"/>
    <path d="M688,80 L688,22 L696,22 L696,80"/>

    <!-- Empire State — stepped setbacks + tall mast -->
    <path d="M702,80 L702,28 L732,28 L732,80"/>
    <path d="M706,28 L706,20 L728,20 L728,28"/>
    <path d="M710,20 L710,14 L724,14 L724,20"/>
    <path d="M713,14 L713,8 L721,8 L721,14"/>
    <path d="M715,8 L715,5 L719,5 L719,8"/>
    <rect x="716.5" y="0" width="1" height="5"/>

    <path d="M738,80 L738,26 L748,26 L748,80"/>

    <!-- Citigroup — angled roof -->
    <path d="M754,80 L754,22 L764,12 L764,22 L766,22 L766,80"/>

    <path d="M772,80 L772,28 L780,28 L780,80"/>

    <!-- 432 Park — tall thin -->
    <path d="M786,80 L786,6 L792,6 L792,80"/>

    <path d="M798,80 L798,30 L806,30 L806,80"/>

    <!-- One Vanderbilt — tapered -->
    <path d="M812,80 L812,16 L814,12 L816,8 L818,12 L820,16 L820,80"/>

    <path d="M826,80 L826,28 L836,28 L836,80"/>

    <!-- Central Park Tower — super tall -->
    <path d="M842,80 L842,4 L848,4 L848,80"/>

    <path d="M854,80 L854,26 L862,26 L862,80"/>

    <!-- 30 Hudson Yards — observation jut -->
    <path d="M868,80 L868,20 L878,20 L880,16 L882,20 L882,80"/>

    <path d="M888,80 L888,30 L896,30 L896,80"/>

    <!-- ═══ RIGHT SIDE TAPER (x=900-1100) ═══ -->
    <path d="M904,80 L904,36 L912,36 L912,80"/>
    <path d="M918,80 L918,40 L926,40 L926,80"/>
    <path d="M932,80 L932,44 L940,44 L940,80"/>
    <path d="M946,80 L946,42 L954,42 L954,80"/>
    <path d="M960,80 L960,48 L968,48 L968,80"/>
    <path d="M974,80 L974,46 L982,46 L982,80"/>
    <path d="M988,80 L988,52 L996,52 L996,80"/>
    <path d="M1002,80 L1002,50 L1010,50 L1010,80"/>
    <path d="M1016,80 L1016,54 L1024,54 L1024,80"/>

    <!-- Water tower on right side -->
    <path d="M1030,80 L1030,48 L1042,48 L1042,80"/>
    <ellipse cx="1036" cy="44" rx="4" ry="3"/>
    <path d="M1033,48 L1033,44 L1039,44 L1039,48" fill="none" stroke="#d0d0d0" stroke-opacity="0.5" stroke-width="0.8"/>

    <!-- Construction crane right -->
    <rect x="1052" y="28" width="2" height="52"/>
    <rect x="1046" y="28" width="16" height="2"/>
    <path d="M1054,28 L1062,26" fill="none" stroke="#d0d0d0" stroke-opacity="0.5" stroke-width="0.8"/>
    <rect x="1060" y="28" width="1" height="8"/>

    <!-- Far right low -->
    <path d="M1070,80 L1070,56 L1080,56 L1080,80"/>
    <path d="M1084,80 L1084,52 L1094,52 L1094,80"/>
    <path d="M1098,80 L1098,58 L1106,58 L1106,80"/>
    <path d="M1112,80 L1112,54 L1122,54 L1122,80"/>
    <path d="M1126,80 L1126,60 L1134,60 L1134,80"/>
    <path d="M1140,80 L1140,56 L1148,56 L1148,80"/>
    <path d="M1154,80 L1154,62 L1162,62 L1162,80"/>
    <path d="M1168,80 L1168,58 L1178,58 L1178,80"/>
    <path d="M1184,80 L1184,64 L1200,64 L1200,80"/>

    <!-- ═══ TREES / BUSHES along base (organic shapes filling gaps) ═══ -->
    <ellipse cx="30" cy="74" rx="10" ry="6"/>
    <ellipse cx="58" cy="74" rx="8" ry="5"/>
    <ellipse cx="82" cy="75" rx="6" ry="4"/>
    <ellipse cx="155" cy="74" rx="8" ry="5"/>
    <ellipse cx="245" cy="75" rx="10" ry="5"/>
    <ellipse cx="310" cy="75" rx="7" ry="4"/>
    <ellipse cx="438" cy="75" rx="8" ry="5"/>
    <ellipse cx="608" cy="75" rx="6" ry="4"/>
    <ellipse cx="650" cy="75" rx="8" ry="5"/>
    <ellipse cx="900" cy="75" rx="8" ry="5"/>
    <ellipse cx="960" cy="75" rx="6" ry="4"/>
    <ellipse cx="1060" cy="75" rx="8" ry="5"/>
    <ellipse cx="1140" cy="75" rx="10" ry="5"/>
    <ellipse cx="1190" cy="75" rx="8" ry="4"/>

  </g>
</svg>
